<!DOCTYPE svg PUBLIC "-//W3C//DTD SVG 1.1//EN" "http://www.w3.org/Graphics/SVG/1.1/DTD/svg11.dtd">
<!-- Uploaded to: SVG Repo, www.svgrepo.com, Transformed by: SVG Repo Mixer Tools -->
<svg height="800px" width="800px" version="1.1" id="Layer_1" xmlns="http://www.w3.org/2000/svg" xmlns:xlink="http://www.w3.org/1999/xlink" viewBox="0 0 512 512" xml:space="preserve" fill="#000000">
<g id="SVGRepo_bgCarrier" stroke-width="0"/>
<g id="SVGRepo_tracerCarrier" stroke-linecap="round" stroke-linejoin="round"/>
<g id="SVGRepo_iconCarrier"> <circle style="fill:#ECE5DD;" cx="256" cy="256" r="256"/> <path style="fill:#D9CBBD;" d="M256,0c-11.317,0-22.461,0.744-33.391,2.167C348.216,18.53,445.217,125.933,445.217,256 s-97.002,237.47-222.609,253.833C233.539,511.256,244.683,512,256,512c141.385,0,256-114.616,256-256S397.385,0,256,0z"/> <g> <path style="fill:#378B4E;" d="M82.572,291.771L219.444,81.199c3.071-4.725,9.752-5.337,13.63-1.248l42.74,45.057 c2.326,2.452,2.694,6.171,0.893,9.031L131.829,364.139c-2.975,4.725-9.911,4.576-12.681-0.272l-36.797-64.396 C80.977,297.066,81.062,294.094,82.572,291.771z"/> <path style="fill:#378B4E;" d="M275.814,125.008l-42.74-45.057c-3.878-4.089-10.559-3.477-13.63,1.248l-85.428,131.428 c26.337,7.162,52.88,13.912,78.414,23.501l64.278-102.088C278.508,131.178,278.141,127.46,275.814,125.008z"/> </g> <path style="fill:#FFCE00;" d="M360.136,315.371L218.392,88.29c-2.997-4.803,0.475-11.025,6.136-10.995l72.419,0.387 c2.42,0.013,4.67,1.242,5.988,3.27l137.64,211.753c2.739,4.214,0.419,9.866-4.491,10.94l-68.315,14.94 C364.801,319.236,361.745,317.949,360.136,315.371z"/> <path style="fill:#126DB1;" d="M434.569,289.131l-267.985-1.047c-2.552-0.01-4.929,1.296-6.288,3.455l-40.749,64.718 c-3.104,4.931,0.446,11.348,6.272,11.337l272.062-0.493c2.631-0.004,5.062-1.407,6.383-3.683l36.673-63.179 C443.793,295.32,440.258,289.153,434.569,289.131z"/> <path style="fill:#378B4E;" d="M138.408,205.87l-55.836,85.902c-1.51,2.323-1.595,5.295-0.22,7.7l36.797,64.396 c2.769,4.847,9.706,4.995,12.681,0.272l85.845-136.341C192.105,218.238,164.757,213.04,138.408,205.87z"/> </g>
</svg>